<svg width="24" height="24" viewBox="0 0 24 24" fill="none" xmlns="http://www.w3.org/2000/svg">
<path d="M12 15C13.6569 15 15 13.6569 15 12C15 10.3431 13.6569 9 12 9C10.3431 9 9 10.3431 9 12C9 13.6569 10.3431 15 12 15Z" fill="#4E4E4E"/>
<path fill-rule="evenodd" clip-rule="evenodd" d="M7.82633 2.69467C7.9284 2.28641 8.29522 2 8.71605 2H15.284C15.7048 2 16.0716 2.28641 16.1737 2.69467L16.5 4H19C20.6569 4 22 5.34315 22 7L22 17C22 18.6569 20.6569 20 19 20H5C3.34315 20 2 18.6569 2 17V7C2 5.34315 3.34315 4 5 4H7.5L7.82633 2.69467ZM12 17C14.7614 17 17 14.7614 17 12C17 9.23858 14.7614 7 12 7C9.23858 7 7 9.23858 7 12C7 14.7614 9.23858 17 12 17ZM20 6H18V8H20V6Z" fill="#4E4E4E"/>
</svg>
