<svg width="24" height="24" viewBox="0 0 24 24" fill="none" xmlns="http://www.w3.org/2000/svg">
<path fill-rule="evenodd" clip-rule="evenodd" d="M2 6.375C2 4.51104 3.34315 3 5 3H19C20.6569 3 22 4.51104 22 6.375V17.625C22 19.489 20.6569 21 19 21H5C3.34315 21 2 19.489 2 17.625V6.375ZM19.7965 17.244C19.9298 17.4731 20 17.735 20 18C20 18.5523 19.5523 19 19 19H5C4.44772 19 4 18.5523 4 18C4 17.8358 4.03967 17.674 4.11564 17.5284L7 12L10 17L15 9L19.7965 17.244ZM7 10C8.10457 10 9 9.10457 9 8C9 6.89543 8.10457 6 7 6C5.89543 6 5 6.89543 5 8C5 9.10457 5.89543 10 7 10Z" fill="#4E4E4E"/>
</svg>
