<svg width="24" height="24" viewBox="0 0 24 24" fill="none" xmlns="http://www.w3.org/2000/svg">
<path d="M21.7511 20.549C22.083 20.8809 22.083 21.4191 21.7511 21.7511C21.4191 22.083 20.8809 22.083 20.549 21.7511L16.3123 17.5144C15.3718 18.2509 14.2382 18.752 13 18.9291V22H11V18.9291C7.60773 18.4439 5.00003 15.5265 5.00003 12V11H7.00003V12C7.00003 14.7614 9.2386 17 12 17C13.0738 17 14.0685 16.6615 14.8833 16.0854L13.4338 14.6359C13.0078 14.8681 12.5193 15 12 15C10.3432 15 9.00003 13.6569 9.00003 12V10.2021L2.24896 3.4511C1.91701 3.11916 1.91701 2.58097 2.24896 2.24902C2.5809 1.91708 3.11909 1.91707 3.45104 2.24902L21.7511 20.549Z" fill="#4E4E4E"/>
<path d="M19 12C19 13.0272 18.7788 14.0026 18.3814 14.8814L16.8231 13.3231C16.9384 12.9017 17 12.458 17 12V11H19V12Z" fill="#4E4E4E"/>
<path d="M15 6.00003V11.5L9.03573 5.53575C9.25889 4.09935 10.5011 3.00003 12 3.00003C13.6569 3.00003 15 4.34317 15 6.00003Z" fill="#4E4E4E"/>
</svg>
