<svg width="24" height="24" viewBox="0 0 24 24" fill="none" xmlns="http://www.w3.org/2000/svg">
<path d="M5 6C3.34315 6 2 7.34315 2 9V15C2 16.6569 3.34315 18 5 18H13C14.6569 18 16 16.6569 16 15V12L20.788 16.788C21.2352 17.2352 22 16.9185 22 16.2859V7.71409C22 7.08155 21.2352 6.76477 20.788 7.21205L16 12V9C16 7.34315 14.6569 6 13 6H5Z" fill="#4E4E4E"/>
<path fill-rule="evenodd" clip-rule="evenodd" d="M9 8C8.44772 8 8 8.44772 8 9V11H6C5.44772 11 5 11.4477 5 12C5 12.5523 5.44772 13 6 13H8V15C8 15.5523 8.44772 16 9 16C9.55228 16 10 15.5523 10 15V13H12C12.5523 13 13 12.5523 13 12C13 11.4477 12.5523 11 12 11H10V9C10 8.44772 9.55228 8 9 8Z" fill="#4E4E4E"/>
</svg>
