<svg width="24" height="24" viewBox="0 0 24 24" fill="none" xmlns="http://www.w3.org/2000/svg">
<path d="M3.45104 2.24896C3.11909 1.91701 2.5809 1.91701 2.24896 2.24896C1.91701 2.58091 1.91701 3.1191 2.24896 3.45104L4.80421 6.00629C3.23861 6.10714 2 7.40893 2 9V15C2 16.6569 3.34315 18 5 18H13C14.0323 18 14.9429 17.4786 15.4826 16.6847L20.549 21.751C20.8809 22.083 21.4191 22.083 21.7511 21.751C22.083 21.4191 22.083 20.8809 21.7511 20.549L3.45104 2.24896Z" fill="#4E4E4E"/>
<path d="M20.788 16.788L16 12L20.788 7.21205C21.2352 6.76477 22 7.08155 22 7.71409V16.2859C22 16.9185 21.2352 17.2352 20.788 16.788Z" fill="#4E4E4E"/>
<path d="M16 12L10 6H13C14.6569 6 16 7.34315 16 9V12Z" fill="#4E4E4E"/>
</svg>
