<svg width="24" height="24" viewBox="0 0 24 24" fill="none" xmlns="http://www.w3.org/2000/svg">
<path fill-rule="evenodd" clip-rule="evenodd" d="M2.1537 7.82298C2.051 9.21034 1.99988 10.6052 2 12C1.99988 13.3949 2.051 14.7897 2.1537 16.177C2.25398 17.5316 3.36463 18.6124 4.76762 18.7206C7.09027 18.8999 9.54741 18.9965 12 19C14.4526 18.9965 16.9097 18.8999 19.2324 18.7206C20.6354 18.6124 21.746 17.5316 21.8463 16.177C21.949 14.7897 22.0001 13.3948 22 12C22.0001 10.6052 21.949 9.21033 21.8463 7.82298C21.746 6.46844 20.6354 5.38765 19.2324 5.27935C16.9097 5.10007 14.4526 5.00353 12 5C9.54741 5.00353 7.09027 5.10007 4.76762 5.27935C3.36463 5.38765 2.25398 6.46844 2.1537 7.82298ZM10.6999 9.49343C10.3783 9.33831 10 9.5639 10 9.91076V14C10 14.3469 10.3783 14.5725 10.6999 14.4173L14.9381 12.3727C15.2945 12.2008 15.2945 11.71 14.9381 11.538L10.6999 9.49343Z" fill="#4E4E4E"/>
</svg>
