<svg width="24" height="24" viewBox="0 0 24 24" fill="none" xmlns="http://www.w3.org/2000/svg">
<path fill-rule="evenodd" clip-rule="evenodd" d="M7.5 6L8.12127 3.51493C8.34385 2.62459 9.14382 2 10.0616 2H13.9384C14.8562 2 15.6561 2.62459 15.8787 3.51493L16.5 6H17C18.6569 6 20 7.34315 20 9V15C20 16.6569 18.6569 18 17 18H16.5L15.8787 20.4851C15.6561 21.3754 14.8562 22 13.9384 22H10.0616C9.14382 22 8.34385 21.3754 8.12127 20.4851L7.5 18H7C5.34315 18 4 16.6569 4 15V9C4 7.34315 5.34315 6 7 6H7.5ZM12 8C12.5523 8 13 8.44771 13 9V11.5858L15.5 14.0858C15.8905 14.4763 15.8905 15.1095 15.5 15.5C15.1095 15.8905 14.4763 15.8905 14.0858 15.5L11.2929 12.7071C11.1054 12.5196 11 12.2652 11 12V9C11 8.44771 11.4477 8 12 8Z" fill="#4E4E4E"/>
</svg>
