<svg width="24" height="24" viewBox="0 0 24 24" fill="none" xmlns="http://www.w3.org/2000/svg">
<path fill-rule="evenodd" clip-rule="evenodd" d="M13.6096 10.063L12 6.20001L10.3904 10.063L6.14118 10.5163L9.23042 13.3247L8.07705 17.9382L12 15.6965L15.923 17.9382L14.7697 13.3247L17.8589 10.5163L13.6096 10.063ZM17 14L18.4317 19.7266C18.6453 20.581 17.7301 21.2743 16.9654 20.8374L12 18L7.03468 20.8374C6.27004 21.2743 5.35481 20.581 5.5684 19.7266L7.00005 14L3.14794 10.4981C2.50946 9.91766 2.85653 8.85532 3.71455 8.76379L9.00005 8.20001L11.077 3.21539C11.4188 2.39488 12.5812 2.39488 12.9231 3.21539L15 8.20001L20.2855 8.76379C21.1436 8.85532 21.4906 9.91765 20.8522 10.4981L17 14Z" fill="#4E4E4E"/>
</svg>
