<svg width="24" height="24" viewBox="0 0 24 24" fill="none" xmlns="http://www.w3.org/2000/svg">
<path fill-rule="evenodd" clip-rule="evenodd" d="M18.4317 19.7265L17 14L20.8522 10.4981C21.4906 9.91762 21.1436 8.85528 20.2855 8.76376L15 8.19998L12.9231 3.21536C12.5812 2.39485 11.4188 2.39485 11.077 3.21536L9.00005 8.19998L3.71455 8.76376C2.85653 8.85528 2.50946 9.91762 3.14794 10.4981L7.00005 14L5.5684 19.7265C5.35481 20.5809 6.27004 21.2743 7.03468 20.8373L12 18L16.9654 20.8373C17.7301 21.2743 18.6453 20.5809 18.4317 19.7265ZM12 6.19998L13.6096 10.063L17.8589 10.5163L14.7697 13.3247L15.923 17.9382L12 15.6965V6.19998Z" fill="#4E4E4E"/>
</svg>
