<svg width="24" height="24" viewBox="0 0 24 24" fill="none" xmlns="http://www.w3.org/2000/svg">
<path d="M4 8V10L7 10C8.65685 10 10 8.65685 10 7L10 4H8L8 7C8 7.55228 7.55228 8 7 8H4Z" fill="#4E4E4E"/>
<path d="M20 10V8H17C16.4477 8 16 7.55228 16 7L16 4H14L14 7C14 8.65685 15.3431 10 17 10L20 10Z" fill="#4E4E4E"/>
<path d="M20 14V16H17C16.4477 16 16 16.4477 16 17L16 20H14L14 17C14 15.3431 15.3431 14 17 14H20Z" fill="#4E4E4E"/>
<path d="M4 14V16H7C7.55228 16 8 16.4477 8 17L8 20H10L10 17C10 15.3431 8.65685 14 7 14H4Z" fill="#4E4E4E"/>
</svg>
