<svg width="24" height="24" viewBox="0 0 24 24" fill="none" xmlns="http://www.w3.org/2000/svg">
<path d="M10 4H7C5.34315 4 4 5.34315 4 7V10H6V7C6 6.44772 6.44772 6 7 6H10V4Z" fill="#4E4E4E"/>
<path d="M10 18H7C6.44772 18 6 17.5523 6 17V14H4V17C4 18.6569 5.34315 20 7 20H10V18Z" fill="#4E4E4E"/>
<path d="M14 20V18H17C17.5523 18 18 17.5523 18 17V14H20V17C20 18.6569 18.6569 20 17 20H14Z" fill="#4E4E4E"/>
<path d="M14 6V4H17C18.6569 4 20 5.34315 20 7V10H18V7C18 6.44772 17.5523 6 17 6H14Z" fill="#4E4E4E"/>
</svg>
