<svg width="24" height="24" viewBox="0 0 24 24" fill="none" xmlns="http://www.w3.org/2000/svg">
<path d="M14.5 4C13.6716 4 13 4.67157 13 5.5V17.5C13 18.3284 13.6716 19 14.5 19C15.3284 19 16 18.3284 16 17.5V5.5C16 4.67157 15.3284 4 14.5 4Z" fill="#4E4E4E"/>
<path d="M9.5 9C8.67157 9 8 9.67157 8 10.5V14.5C8 15.3284 8.67157 16 9.5 16C10.3284 16 11 15.3284 11 14.5V10.5C11 9.67157 10.3284 9 9.5 9Z" fill="#4E4E4E"/>
<path d="M19.5 11C18.6716 11 18 11.6716 18 12.5V15.5C18 16.3284 18.6716 17 19.5 17C20.3284 17 21 16.3284 21 15.5V12.5C21 11.6716 20.3284 11 19.5 11Z" fill="#4E4E4E"/>
<path d="M3 14.5C3 13.6716 3.67157 13 4.5 13C5.32843 13 6 13.6716 6 14.5V18.5C6 19.3284 5.32843 20 4.5 20C3.67157 20 3 19.3284 3 18.5V14.5Z" fill="#4E4E4E"/>
</svg>
