<svg width="24" height="24" viewBox="0 0 24 24" fill="none" xmlns="http://www.w3.org/2000/svg">
<path fill-rule="evenodd" clip-rule="evenodd" d="M2 8C2 6.34315 3.34315 5 5 5H19C20.6569 5 22 6.34315 22 8V16C22 17.6569 20.6569 19 19 19H5C3.34315 19 2 17.6569 2 16V8ZM11.0001 16L13.0001 16V11.2765L15.1507 12.8378C15.5306 13.1136 16.0621 13.0293 16.3379 12.6494C16.6137 12.2695 16.5293 11.738 16.1494 11.4622L12 8.5L7.85065 11.4622C7.47077 11.738 7.3864 12.2695 7.6622 12.6494C7.93801 13.0293 8.46954 13.1136 8.84942 12.8378L11.0001 11.2764V16Z" fill="#4E4E4E"/>
</svg>
