<svg width="24" height="24" viewBox="0 0 24 24" fill="none" xmlns="http://www.w3.org/2000/svg">
<path d="M8.15451 7.75592C8.45858 6.99729 9.19364 6.5 10.0109 6.5H14.0978C14.9395 6.5 15.6911 7.02693 15.978 7.81817L17 10.6364V12H7V10.6364L8.15451 7.75592Z" fill="#4E4E4E"/>
<path d="M3.15451 15.7559C3.45858 14.9973 4.19364 14.5 5.01094 14.5H9.09783C9.93949 14.5 10.6911 15.0269 10.978 15.8182L12 18.6364L13.1545 15.7559C13.4586 14.9973 14.1936 14.5 15.0109 14.5H19.0978C19.9395 14.5 20.6911 15.0269 20.978 15.8182L22 18.6364V20H2V18.6364L3.15451 15.7559Z" fill="#4E4E4E"/>
</svg>
