<svg width="24" height="24" viewBox="0 0 24 24" fill="none" xmlns="http://www.w3.org/2000/svg">
<g clip-path="url(#clip0_194_682)">
<path d="M7.07445 5.61568C6.79359 5.14014 6.95141 4.52696 7.42695 4.24611C10.878 2.20787 15.3976 2.66972 18.3639 5.63604C20.1218 7.39392 20.9997 9.69777 20.9998 12H23L20 16L17 12L19 12C19.0001 10.2075 18.316 8.41658 16.9497 7.05025C14.6442 4.74484 11.1286 4.38269 8.44403 5.96819C7.96849 6.24904 7.35531 6.09122 7.07445 5.61568Z" fill="#4E4E4E"/>
<path d="M24 12.7279L24.0208 12.7071H24V12.7279Z" fill="#4E4E4E"/>
<path d="M15.5558 18.0318C12.8713 19.6173 9.35558 19.2552 7.05017 16.9497C5.68386 15.5834 4.99972 13.7925 4.99978 12L7 12L4 8.00003L1 12L3.00005 12C3.00012 14.3023 3.87808 16.6061 5.63595 18.364C8.60227 21.3303 13.1218 21.7921 16.5729 19.7539C17.0484 19.473 17.2062 18.8599 16.9254 18.3843C16.6445 17.9088 16.0313 17.751 15.5558 18.0318Z" fill="#4E4E4E"/>
<path d="M-5.8949e-05 11.2721V11.2929H-0.020874L-5.8949e-05 11.2721Z" fill="#4E4E4E"/>
<path fill-rule="evenodd" clip-rule="evenodd" d="M9.58333 8.00003H13.25C14.6307 8.00003 15.75 9.11932 15.75 10.5C15.75 11.8807 14.6307 13 13.25 13H11.0833V13.75H14V15H11.0833V16H9.58333V15H8.5V13.75H9.58333V13H8.5V11.5H9.58333V8.00003ZM11.0833 11.5H13.25C13.8023 11.5 14.25 11.0523 14.25 10.5C14.25 9.94775 13.8023 9.50003 13.25 9.50003H11.0833V11.5Z" fill="#4E4E4E"/>
</g>
<defs>
<clipPath id="clip0_194_682">
<rect width="24" height="24" fill="white"/>
</clipPath>
</defs>
</svg>
