<svg width="24" height="24" fill="none" xmlns="http://www.w3.org/2000/svg"><path d="M19.165 20.102c-.481.563-1.156.93-1.895.896-1.906-.086-5.895-.766-9.699-4.576-3.804-3.81-4.483-7.804-4.569-9.714-.033-.74.333-1.417.896-1.898l1.81-1.549a1.09 1.09 0 011.574.17L9.8 6.64c.274.348.247.805 0 1.195L7.5 11.5l5 5 3.805-2.3c.398-.247.828-.27 1.155 0l3.133 2.558c.458.37.544 1.031.163 1.479l-1.591 1.865z" fill="#4E4E4E"/><path d="M13.749 3.749a.85.85 0 011.202 0L17 5.798l2.049-2.049a.85.85 0 111.202 1.202L18.202 7l2.05 2.049a.85.85 0 01-1.203 1.202L17 8.202l-2.049 2.05a.85.85 0 01-1.202-1.203L15.798 7l-2.049-2.049a.85.85 0 010-1.202z" fill="#4E4E4E"/></svg>