<svg width="24" height="24" fill="none" xmlns="http://www.w3.org/2000/svg"><path d="M7.013 5.75h2.612a.875.875 0 000-1.75H4v5.625a.875.875 0 101.75 0v-2.73l3.587 3.433a3.85 3.85 0 005.325-.002l5.076-4.862a.85.85 0 00-1.176-1.228L13.486 9.1a2.15 2.15 0 01-2.974 0l-3.5-3.349zM2.023 18.188c-.091-.819.158-1.643.798-2.162C4.241 14.874 7.277 13 12 13c4.722 0 7.758 1.873 9.178 3.025.64.52.89 1.345.798 2.164l-.167 1.495a1.3 1.3 0 01-1.46 1.145l-3.33-.434a1 1 0 01-.86-.844l-.523-3.514H8.364l-.69 3.556a1 1 0 01-.849.8l-3.17.429a1.3 1.3 0 01-1.466-1.144l-.166-1.49z" fill="#4E4E4E"/></svg>