<svg width="24" height="24" fill="none" xmlns="http://www.w3.org/2000/svg"><path d="M15 2a3 3 0 00-3 3v8l2.5-2H19a3 3 0 003-3V5a3 3 0 00-3-3h-4z" fill="#4E4E4E"/><path d="M17.27 20.998c.74.033 1.414-.333 1.895-.896l1.59-1.865a1.022 1.022 0 00-.162-1.48l-3.133-2.36a.988.988 0 00-1.155-.024l-3.486 2.4-5.598-5.608 2.499-3.33a.992.992 0 00-.003-1.195L7.282 3.43a1.087 1.087 0 00-1.574-.169L3.898 4.81c-.563.481-.93 1.157-.896 1.898.086 1.91.765 5.904 4.569 9.714 3.804 3.81 7.793 4.49 9.699 4.576z" fill="#4E4E4E"/></svg>