<svg width="24" height="24" fill="none" xmlns="http://www.w3.org/2000/svg"><path d="M4.451 3.249a.85.85 0 10-1.202 1.202l10.148 10.148-1.9 1.901-3.806-2.3c-.398-.247-.828-.27-1.155 0l-3.133 2.558c-.458.37-.544 1.031-.162 1.479l1.59 1.865c.481.563 1.156.93 1.895.896 1.804-.081 5.471-.694 9.083-3.987l4.74 4.74a.85.85 0 101.202-1.202l-17.3-17.3zM18.288 14.224l-.027.037-.04-.04.067.003zM18.288 14.224l-4.092-6.39c-.247-.389-.274-.846 0-1.194l2.518-3.21a1.09 1.09 0 011.574-.169l1.81 1.549c.563.481.93 1.157.896 1.898-.07 1.543-.526 4.448-2.706 7.516z" fill="#4E4E4E"/></svg>