<svg width="24" height="24" fill="none" xmlns="http://www.w3.org/2000/svg"><path d="M17.27 20.998c.74.033 1.414-.333 1.895-.896l1.59-1.865c.383-.448.296-1.108-.162-1.48L17.46 14.2c-.327-.27-.757-.247-1.155 0L12.5 16.5l-5-5 2.3-3.665c.247-.39.274-.847 0-1.195L7.282 3.43a1.09 1.09 0 00-1.574-.169L3.898 4.81c-.563.481-.93 1.157-.896 1.898.086 1.91.765 5.904 4.569 9.714 3.804 3.81 7.793 4.49 9.699 4.576zM20.75 8.25a1.25 1.25 0 100-2.5 1.25 1.25 0 000 2.5zM18.5 7A1.25 1.25 0 1116 7a1.25 1.25 0 012.5 0zM13.75 8.25a1.25 1.25 0 100-2.5 1.25 1.25 0 000 2.5z" fill="#4E4E4E"/></svg>