<svg width="24" height="24" fill="none" xmlns="http://www.w3.org/2000/svg"><path fill-rule="evenodd" clip-rule="evenodd" d="M2.154 7.823a56.547 56.547 0 000 8.354c.1 1.355 1.21 2.435 2.614 2.544 2.322.179 4.78.276 7.232.279 2.453-.003 4.91-.1 7.232-.28 1.403-.108 2.514-1.188 2.614-2.543a56.556 56.556 0 000-8.354c-.1-1.355-1.21-2.435-2.614-2.544A96.689 96.689 0 0012 5c-2.453.004-4.91.1-7.232.28-1.403.108-2.514 1.188-2.614 2.543zm8.546 1.67c-.322-.155-.7.07-.7.418V14c0 .347.378.572.7.417l4.238-2.044a.46.46 0 000-.835L10.7 9.493z" fill="#4E4E4E"/></svg>