<svg width="24" height="24" fill="none" xmlns="http://www.w3.org/2000/svg"><g clip-path="url(#clip0_194_682)" fill="#4E4E4E"><path d="M7.074 5.616a1 1 0 01.353-1.37c3.451-2.038 7.97-1.576 10.937 1.39A8.973 8.973 0 0121 12h2l-3 4-3-4h2A7.003 7.003 0 008.444 5.968a1 1 0 01-1.37-.352zM24 12.728l.02-.02H24v.02zM15.556 18.032A7.003 7.003 0 015 12h2L4 8l-3 4h2c0 2.302.878 4.606 2.636 6.364 2.966 2.966 7.486 3.428 10.937 1.39a1 1 0 00-1.017-1.722zM0 11.272v.02h-.02l.02-.02z"/><path fill-rule="evenodd" clip-rule="evenodd" d="M9.583 8h3.667a2.5 2.5 0 010 5h-2.167v.75H14V15h-2.917v1h-1.5v-1H8.5v-1.25h1.083V13H8.5v-1.5h1.083V8zm1.5 3.5h2.167a1 1 0 100-2h-2.167v2z"/></g><defs><clipPath id="clip0_194_682"><path fill="#fff" d="M0 0h24v24H0z"/></clipPath></defs></svg>