<svg width="24" height="24" fill="none" xmlns="http://www.w3.org/2000/svg"><g clip-path="url(#clip0_194_696)"><path fill-rule="evenodd" clip-rule="evenodd" d="M7.427 4.246a1 1 0 101.017 1.722A7.003 7.003 0 0119 12h-2l3 4 3-4h-2a8.973 8.973 0 00-2.636-6.364c-2.966-2.966-7.486-3.428-10.937-1.39zm16.594 8.461l-.021.02v-.02h.02zM7.05 16.95a7.003 7.003 0 008.505 1.082 1 1 0 011.017 1.722c-3.451 2.038-7.97 1.576-10.937-1.39A8.973 8.973 0 013 12H1l3-4 3 4H5c0 1.793.684 3.583 2.05 4.95zM0 11.293v-.02l-.02.02H0zM13 7h-2v1a2.378 2.378 0 00-2 2.348c0 1.151.828 2.136 1.961 2.334l1.785.311a.668.668 0 01-.114 1.327H11.52a.82.82 0 01-.82-.82H9c0 1.213.858 2.26 2 2.5v1h2v-1a2.378 2.378 0 002-2.348 2.368 2.368 0 00-1.961-2.334l-1.785-.311a.669.669 0 01.114-1.327h1.112a.82.82 0 01.82.82H15c0-1.213-.858-2.26-2-2.5V7z" fill="#4E4E4E"/></g><defs><clipPath id="clip0_194_696"><path fill="#fff" d="M0 0h24v24H0z"/></clipPath></defs></svg>