<svg width="24" height="24" fill="none" xmlns="http://www.w3.org/2000/svg"><path fill-rule="evenodd" clip-rule="evenodd" d="M5 6a1 1 0 011-1h12a1 1 0 011 1v12a1 1 0 01-1 1H6a1 1 0 01-1-1V6zm8 5.188c0 .507.256.979.68 1.256l1.875 1.224-1.11 1.664-1.724-1.15a1.3 1.3 0 00-1.442 0l-1.724 1.15-1.11-1.664 1.875-1.224a1.5 1.5 0 00.68-1.256V9h2v2.188z" fill="#4E4E4E"/><path fill-rule="evenodd" clip-rule="evenodd" d="M5 2a3 3 0 00-3 3v14a3 3 0 003 3h14a3 3 0 003-3V5a3 3 0 00-3-3H5zm.5 2A1.5 1.5 0 004 5.5v13A1.5 1.5 0 005.5 20h13a1.5 1.5 0 001.5-1.5v-13A1.5 1.5 0 0018.5 4h-13z" fill="#4E4E4E"/></svg>