<svg width="24" height="24" viewBox="0 0 24 24" fill="none" xmlns="http://www.w3.org/2000/svg">
<path fill-rule="evenodd" clip-rule="evenodd" d="M12 2C17.5228 2 22 6.47715 22 12C22 17.5228 17.5228 22 12 22C6.47715 22 2 17.5228 2 12C2 6.47715 6.47715 2 12 2ZM12.0018 20C12.0082 19.9999 12.0312 19.998 12.079 19.9762C12.1393 19.9488 12.2431 19.8873 12.3818 19.7568C12.6701 19.4859 13.0204 19.0009 13.3581 18.2503C13.9418 16.9533 14.3714 15.1221 14.4756 13H9.52439C9.62863 15.1221 10.0582 16.9533 10.6419 18.2503C10.9796 19.0009 11.3299 19.4859 11.6182 19.7568C11.7569 19.8873 11.8607 19.9488 11.921 19.9762C11.9706 19.9988 11.9935 20 11.9989 20H12.0018ZM8.97794 19.4095C8.17442 17.7901 7.63544 15.5342 7.52222 13H4.06189C4.42501 15.9119 6.3531 18.3378 8.97794 19.4095ZM4.06189 11H7.52222C7.63544 8.46577 8.17441 6.20987 8.97794 4.59049C6.3531 5.66216 4.42501 8.08808 4.06189 11ZM15.0221 19.4095C17.6469 18.3378 19.575 15.9119 19.9381 13H16.4778C16.3646 15.5342 15.8256 17.7901 15.0221 19.4095ZM19.9381 11C19.575 8.08808 17.6469 5.66216 15.0221 4.59049C15.8256 6.20987 16.3646 8.46578 16.4778 11H19.9381ZM11.9983 4C11.992 4.00012 11.969 4.00192 11.921 4.02377C11.8607 4.05118 11.7569 4.11273 11.6182 4.24316C11.3299 4.51413 10.9796 4.99913 10.6419 5.74966C10.0582 7.04668 9.62863 8.87787 9.52439 11H14.4756C14.3714 8.87787 13.9418 7.04668 13.3581 5.74966C13.0204 4.99913 12.6701 4.51413 12.3818 4.24316C12.2431 4.11273 12.1393 4.05118 12.079 4.02377C12.0294 4.00119 12.0065 4.00003 12.0011 4L11.9983 4Z" fill="#4E4E4E"/>
</svg>
