<svg width="24" height="24" viewBox="0 0 24 24" fill="none" xmlns="http://www.w3.org/2000/svg">
<path fill-rule="evenodd" clip-rule="evenodd" d="M3.45104 2.24896C3.11909 1.91701 2.5809 1.91701 2.24896 2.24896C1.91701 2.5809 1.91701 3.11909 2.24896 3.45104L7.0785 8.28057L3.92094 9.47826C2.71928 9.93406 2.71534 11.6326 3.91488 12.0939L9.68628 14.3137L11.906 20.0851C12.3674 21.2846 14.0659 21.2807 14.5217 20.0791L15.7194 16.9215L20.549 21.751C20.8809 22.083 21.4191 22.083 21.7511 21.751C22.083 21.4191 22.083 20.8809 21.7511 20.549L3.45104 2.24896ZM19.9045 5.8881L17.15 13.15L10.85 6.85L18.1119 4.09549C19.2323 3.67049 20.3295 4.76766 19.9045 5.8881Z" fill="#4E4E4E"/>
</svg>
