<svg width="24" height="24" viewBox="0 0 24 24" fill="none" xmlns="http://www.w3.org/2000/svg">
<path d="M18 10C18 10.5523 18.4477 11 19 11C19.5523 11 20 10.5523 20 10V4.00002L14 4.00003C13.4477 4.00002 13 4.44774 13 5.00003C13 5.55231 13.4477 6.00002 14 6.00003L16.6145 6.00004L13.29 9.32005C12.9067 9.70336 12.9067 10.3267 13.29 10.71C13.6733 11.0934 14.2967 11.0934 14.68 10.71L18 7.39145V10Z" fill="#4E4E4E"/>
<path d="M6 14C6 13.4477 5.55229 13 5 13C4.44772 13 4 13.4477 4 14V20L10 20C10.5523 20 11 19.5523 11 19C11 18.4477 10.5523 18 10 18L7.38545 18L10.71 14.68C11.0933 14.2967 11.0933 13.6733 10.71 13.29C10.3267 12.9067 9.70332 12.9067 9.32 13.29L6 16.6086V14Z" fill="#4E4E4E"/>
</svg>
