<svg width="24" height="24" viewBox="0 0 24 24" fill="none" xmlns="http://www.w3.org/2000/svg">
<path d="M17.0049 19C17.5571 19 18.0047 18.5522 18.0046 18L18.001 6.09087L20.0661 7.79463C20.4391 8.10237 20.9912 8.04981 21.2993 7.67722C21.6074 7.30463 21.5548 6.75311 21.1818 6.44537L17.0049 3L12.828 6.44536C12.455 6.75311 12.4024 7.30463 12.7104 7.67722C13.0185 8.04981 13.5707 8.10237 13.9437 7.79463L16.0088 6.09087L16.0052 18C16.005 18.5522 16.4526 19 17.0049 19Z" fill="#4E4E4E"/>
<path d="M6.99994 5C6.44771 5 6.00008 5.44777 6.00026 6L6.00381 17.9091L3.93871 16.2054C3.56571 15.8976 3.01358 15.9502 2.7055 16.3228C2.39741 16.6954 2.45004 17.2469 2.82304 17.5546L6.99994 21L11.1768 17.5546C11.5498 17.2469 11.6025 16.6954 11.2944 16.3228C10.9863 15.9502 10.4342 15.8976 10.0612 16.2054L7.99607 17.9091L7.99961 6C7.99979 5.44777 7.55217 5 6.99994 5Z" fill="#4E4E4E"/>
</svg>
