<svg width="24" height="24" viewBox="0 0 24 24" fill="none" xmlns="http://www.w3.org/2000/svg">
<path fill-rule="evenodd" clip-rule="evenodd" d="M6.21917 11.4053C6.56418 11.8366 7.19347 11.9065 7.62473 11.5615L12 8.06125L16.3753 11.5615C16.8066 11.9065 17.4359 11.8366 17.7809 11.4053C18.1259 10.9741 18.056 10.3448 17.6247 9.99976L12 5.5L6.37534 9.99975C5.94408 10.3448 5.87416 10.9741 6.21917 11.4053Z" fill="#4E4E4E"/>
<path fill-rule="evenodd" clip-rule="evenodd" d="M6.21917 17.4053C6.56418 17.8366 7.19347 17.9065 7.62473 17.5615L12 14.0612L16.3753 17.5615C16.8066 17.9065 17.4359 17.8366 17.7809 17.4053C18.1259 16.9741 18.056 16.3448 17.6247 15.9998L12 11.5L6.37534 15.9998C5.94408 16.3448 5.87416 16.9741 6.21917 17.4053Z" fill="#4E4E4E"/>
</svg>
