<svg width="24" height="24" viewBox="0 0 24 24" fill="none" xmlns="http://www.w3.org/2000/svg">
<path fill-rule="evenodd" clip-rule="evenodd" d="M22 12C22 17.5228 17.5228 22 12 22C6.47715 22 2 17.5228 2 12C2 6.47715 6.47715 2 12 2C17.5228 2 22 6.47715 22 12ZM6 12C6 12.5523 6.44772 13 7 13H14.7697L12.5 15.5C12.1789 15.8612 12.2115 16.4142 12.5727 16.7353C12.9339 17.0564 13.4869 17.0238 13.808 16.6626L18 12L13.808 7.33736C13.4869 6.97618 12.9339 6.94364 12.5727 7.2647C12.2115 7.58575 12.1789 8.13881 12.5 8.5L14.7697 11H7C6.44772 11 6 11.4477 6 12Z" fill="#4E4E4E"/>
</svg>
