<svg width="24" height="24" viewBox="0 0 24 24" fill="none" xmlns="http://www.w3.org/2000/svg">
<path fill-rule="evenodd" clip-rule="evenodd" d="M12 22C17.5228 22 22 17.5228 22 12C22 6.47715 17.5228 2 12 2C6.47715 2 2 6.47715 2 12C2 17.5228 6.47715 22 12 22ZM14.2032 8.70711C14.5989 8.31658 14.5989 7.68342 14.2032 7.29289C13.8074 6.90237 13.1658 6.90237 12.7701 7.29289L8 12L12.7701 16.7071C13.1658 17.0976 13.8074 17.0976 14.2032 16.7071C14.5989 16.3166 14.5989 15.6834 14.2032 15.2929L10.8663 12L14.2032 8.70711Z" fill="#4E4E4E"/>
</svg>
