<svg width="24" height="24" viewBox="0 0 24 24" fill="none" xmlns="http://www.w3.org/2000/svg">
<path d="M17.3708 3.14793C17.7585 2.88329 18.2874 2.98307 18.552 3.37081L21 6.99999L18.552 10.6292C18.2874 11.0169 17.7585 11.1167 17.3708 10.852C16.983 10.5874 16.8833 10.0585 17.1479 9.6708L18.2883 7.99999H7C5.89543 7.99999 5 8.89542 5 9.99999V12H3V9.99999C3 7.79085 4.79086 5.99999 7 5.99999H18.2883L17.1479 4.32917C16.8833 3.94144 16.983 3.41258 17.3708 3.14793Z" fill="#4E4E4E"/>
<path d="M19 14C19 15.1046 18.1046 16 17 16L5.7117 16L6.8521 14.3292C7.11674 13.9414 7.01696 13.4126 6.62922 13.1479C6.24149 12.8833 5.71263 12.9831 5.44798 13.3708L3 17L5.44798 20.6292C5.71263 21.0169 6.24149 21.1167 6.62922 20.8521C7.01696 20.5874 7.11674 20.0585 6.8521 19.6708L5.71169 18L17 18C19.2091 18 21 16.2091 21 14V12H19V14Z" fill="#4E4E4E"/>
</svg>
