<svg width="24" height="24" viewBox="0 0 24 24" fill="none" xmlns="http://www.w3.org/2000/svg">
<path d="M5 12C5 8.13401 8.13401 5 12 5C14.1867 5 16.1401 6.00226 17.4247 7.57534L15 10H21V4L18.8443 6.15567C17.1945 4.22546 14.7408 3 12 3C7.02944 3 3 7.02944 3 12C3 16.9706 7.02944 21 12 21C16.195 21 19.7174 18.1308 20.7164 14.2493C20.8541 13.7144 20.5321 13.1692 19.9972 13.0316C19.4624 12.8939 18.9172 13.2159 18.7795 13.7507C18.0024 16.7701 15.2603 19 12 19C8.13401 19 5 15.866 5 12Z" fill="#4E4E4E"/>
</svg>
