<svg width="24" height="24" viewBox="0 0 24 24" fill="none" xmlns="http://www.w3.org/2000/svg">
<path d="M17.27 20.9979C18.0093 21.0312 18.6838 20.665 19.1645 20.1015L20.7555 18.2369C21.1375 17.7892 21.0508 17.1289 20.5934 16.7577L17.4603 14.2C17.1328 13.9297 16.7031 13.9531 16.3049 14.2L12.5 16.5L7.5 11.5L9.8 7.83469C10.0469 7.4453 10.0742 6.98827 9.8 6.63953L7.282 3.43064C6.89062 2.93358 6.18412 2.85433 5.70841 3.26118L3.89782 4.80968C3.33471 5.29128 2.96882 5.96717 3.00209 6.70806C3.08786 8.61784 3.76709 12.6118 7.57097 16.4217C11.3753 20.2321 15.3635 20.9121 17.27 20.9979Z" fill="#4E4E4E"/>
<path d="M20.75 8.25C21.4404 8.25 22 7.69036 22 7C22 6.30964 21.4404 5.75 20.75 5.75C20.0596 5.75 19.5 6.30964 19.5 7C19.5 7.69036 20.0596 8.25 20.75 8.25Z" fill="#4E4E4E"/>
<path d="M18.5 7C18.5 7.69036 17.9404 8.25 17.25 8.25C16.5596 8.25 16 7.69036 16 7C16 6.30964 16.5596 5.75 17.25 5.75C17.9404 5.75 18.5 6.30964 18.5 7Z" fill="#4E4E4E"/>
<path d="M13.75 8.25C14.4404 8.25 15 7.69036 15 7C15 6.30964 14.4404 5.75 13.75 5.75C13.0596 5.75 12.5 6.30964 12.5 7C12.5 7.69036 13.0596 8.25 13.75 8.25Z" fill="#4E4E4E"/>
</svg>
