<svg width="24" height="24" viewBox="0 0 24 24" fill="none" xmlns="http://www.w3.org/2000/svg">
<path d="M7.01279 5.75H9.62497C10.1082 5.75 10.5 5.35825 10.5 4.875C10.5 4.39175 10.1082 4 9.62497 4H3.99997V9.62502C3.99997 10.1083 4.39172 10.5 4.87497 10.5C5.35822 10.5 5.74997 10.1083 5.74997 9.62502V6.89451L9.33685 10.3277C10.8261 11.7531 13.1738 11.7525 14.6624 10.3264L19.738 5.46378C20.0769 5.13902 20.0885 4.60096 19.7637 4.26197C19.439 3.92299 18.9009 3.91146 18.5619 4.23622L13.4863 9.09886C12.655 9.89525 11.344 9.89556 10.5123 9.09956L7.01279 5.75Z" fill="#4E4E4E"/>
<path d="M2.02298 18.1883C1.93169 17.3692 2.18132 16.5448 2.82143 16.0256C4.24107 14.8739 7.2768 13 11.9999 13C16.7224 13 19.758 14.8734 21.1779 16.0251C21.8184 16.5446 22.068 17.3695 21.9763 18.189L21.809 19.6845C21.7282 20.4072 21.0703 20.923 20.3492 20.8291L17.0186 20.3954C16.5754 20.3377 16.2243 19.9929 16.1586 19.5508L15.6363 16.0373L8.36358 16.0373L7.67315 19.5935C7.59141 20.0145 7.25031 20.3365 6.82529 20.3939L3.6549 20.822C2.93167 20.9196 2.26977 20.4029 2.18894 19.6776L2.02298 18.1883Z" fill="#4E4E4E"/>
</svg>
