<svg width="24" height="24" viewBox="0 0 24 24" fill="none" xmlns="http://www.w3.org/2000/svg">
<path d="M4.45104 3.24896C4.1191 2.91701 3.58091 2.91701 3.24896 3.24896C2.91701 3.5809 2.91701 4.1191 3.24896 4.45104L13.397 14.5991L11.4961 16.5L7.6912 14.2C7.29297 13.9531 6.86328 13.9297 6.53581 14.2L3.40273 16.7577C2.94531 17.1289 2.85861 17.7892 3.24054 18.2369L4.83155 20.1015C5.31234 20.665 5.98681 21.0312 6.72613 20.9979C8.52986 20.9168 12.197 20.3037 15.8088 17.0109L20.549 21.751C20.8809 22.083 21.4191 22.083 21.751 21.751C22.083 21.4191 22.083 20.8809 21.751 20.549L4.45104 3.24896Z" fill="#4E4E4E"/>
<path d="M18.2877 14.2241L18.2612 14.2612L18.2206 14.2206L18.2877 14.2241Z" fill="#4E4E4E"/>
<path d="M18.2877 14.2241L14.1961 7.83469C13.9492 7.4453 13.9219 6.98827 14.1961 6.63953L16.7141 3.43064C17.1055 2.93358 17.812 2.85433 18.2877 3.26118L20.0983 4.80968C20.6614 5.29128 21.0273 5.96717 20.994 6.70806C20.9247 8.25136 20.4678 11.1557 18.2877 14.2241Z" fill="#4E4E4E"/>
</svg>
