<svg width="24" height="24" viewBox="0 0 24 24" fill="none" xmlns="http://www.w3.org/2000/svg">
<path d="M19.1645 20.1015C18.6838 20.665 18.0093 21.0312 17.27 20.9979C15.3635 20.9121 11.3753 20.2321 7.57097 16.4217C3.76709 12.6118 3.08786 8.61784 3.00209 6.70806C2.96882 5.96717 3.33471 5.29128 3.89782 4.80968L5.70841 3.26118C6.18412 2.85433 6.89062 2.93358 7.282 3.43064L9.8 6.63953C10.0742 6.98827 10.0469 7.4453 9.8 7.83469L7.5 11.5L12.5 16.5L16.3049 14.2C16.7031 13.9531 17.1328 13.9297 17.4603 14.2L20.5934 16.7577C21.0508 17.1289 21.1375 17.7892 20.7555 18.2369L19.1645 20.1015Z" fill="#4E4E4E"/>
<path d="M13.749 3.74896C14.0809 3.41702 14.6191 3.41701 14.951 3.74896L17 5.79792L19.049 3.74902C19.3809 3.41707 19.9191 3.41708 20.251 3.74902C20.583 4.08097 20.583 4.61916 20.251 4.95111L18.2021 7L20.2511 9.04892C20.583 9.38086 20.583 9.91905 20.2511 10.251C19.9191 10.5829 19.3809 10.583 19.049 10.251L17 8.20208L14.951 10.2511C14.6191 10.583 14.0809 10.583 13.7489 10.2511C13.417 9.91911 13.417 9.38092 13.7489 9.04898L15.7979 7L13.749 4.95104C13.417 4.6191 13.417 4.08091 13.749 3.74896Z" fill="#4E4E4E"/>
</svg>
