<svg width="24" height="24" viewBox="0 0 24 24" fill="none" xmlns="http://www.w3.org/2000/svg">
<path fill-rule="evenodd" clip-rule="evenodd" d="M12.5 2C13.6038 2 14.6637 2.18826 15.6492 2.53441C15.236 3.26202 15 4.10345 15 5C15 7.76142 17.2386 10 20 10C20.6427 10 21.2571 9.87874 21.8215 9.65784C21.9386 10.2538 22 10.8697 22 11.5C22 16.7467 17.7467 21 12.5 21C12.3323 21 12.1656 20.9957 12 20.9871V21H3L5.16442 17.5369C3.81214 15.8956 3 13.7927 3 11.5C3 6.25329 7.25329 2 12.5 2ZM13 10V8H8V10H13ZM17 12V14H8V12H17Z" fill="#4E4E4E"/>
<path d="M20 8C21.6569 8 23 6.65685 23 5C23 3.34315 21.6569 2 20 2C18.3431 2 17 3.34315 17 5C17 6.65685 18.3431 8 20 8Z" fill="#4E4E4E"/>
</svg>
