<svg width="24" height="24" viewBox="0 0 24 24" fill="none" xmlns="http://www.w3.org/2000/svg">
<path fill-rule="evenodd" clip-rule="evenodd" d="M12 22C17.5228 22 22 17.5228 22 12C22 6.47715 17.5228 2 12 2C6.47715 2 2 6.47715 2 12C2 17.5228 6.47715 22 12 22ZM19.9995 12C19.9995 11.5458 19.9617 11.1004 19.8889 10.6668L19.4558 9.36756C19.1836 8.55087 18.4193 8.00001 17.5585 8.00001H13.7643C12.7898 8.00001 11.9998 8.79001 11.9998 9.76452C11.9998 10.3874 12.3282 10.9641 12.8638 11.282L14.9985 12.5487C15.3259 12.743 15.591 13.0266 15.7628 13.3663L17.3223 16.4512C17.4925 16.7878 17.8376 17 18.2148 17H18.2449C19.3428 15.6304 19.9995 13.8919 19.9995 12ZM9.99999 5.25269V4.25189C6.54929 5.13981 3.99951 8.27213 3.99951 12C3.99951 14.9796 5.62846 17.5788 8.04439 18.9555L9.72255 16.2324C10.1314 15.569 10.1177 14.7286 9.68744 14.0789L6.79582 9.71201C6.02668 8.55047 6.85958 7 8.25268 7C9.21769 7 9.99999 6.2177 9.99999 5.25269Z" fill="#4E4E4E"/>
</svg>
