<svg width="24" height="24" viewBox="0 0 24 24" fill="none" xmlns="http://www.w3.org/2000/svg">
<mask id="path-1-inside-1_354_155" fill="white">
<path d="M12 16C14.2091 16 16 14.2091 16 12C16 9.79086 14.2091 8 12 8C9.79086 8 8 9.79086 8 12C8 14.2091 9.79086 16 12 16Z"/>
<path fill-rule="evenodd" clip-rule="evenodd" d="M13 1H11V3.05493C6.82838 3.51608 3.51608 6.82838 3.05493 11H1V13H3.05493C3.51608 17.1716 6.82838 20.4839 11 20.9451V23H13V20.9451C17.1716 20.4839 20.4839 17.1716 20.9451 13H23V11H20.9451C20.4839 6.82838 17.1716 3.51608 13 3.05493V1ZM19 12C19 15.866 15.866 19 12 19C8.13401 19 5 15.866 5 12C5 8.13401 8.13401 5 12 5C15.866 5 19 8.13401 19 12Z"/>
</mask>
<path d="M12 16C14.2091 16 16 14.2091 16 12C16 9.79086 14.2091 8 12 8C9.79086 8 8 9.79086 8 12C8 14.2091 9.79086 16 12 16Z" fill="#4E4E4E"/>
<path fill-rule="evenodd" clip-rule="evenodd" d="M13 1H11V3.05493C6.82838 3.51608 3.51608 6.82838 3.05493 11H1V13H3.05493C3.51608 17.1716 6.82838 20.4839 11 20.9451V23H13V20.9451C17.1716 20.4839 20.4839 17.1716 20.9451 13H23V11H20.9451C20.4839 6.82838 17.1716 3.51608 13 3.05493V1ZM19 12C19 15.866 15.866 19 12 19C8.13401 19 5 15.866 5 12C5 8.13401 8.13401 5 12 5C15.866 5 19 8.13401 19 12Z" fill="#4E4E4E"/>
<path d="M11 1V-1H9V1H11ZM13 1H15V-1H13V1ZM11 3.05493L11.2198 5.04282L13 4.84602V3.05493H11ZM3.05493 11V13H4.84602L5.04282 11.2198L3.05493 11ZM1 11V9H-1V11H1ZM1 13H-1V15H1V13ZM3.05493 13L5.04282 12.7802L4.84602 11H3.05493V13ZM11 20.9451H13V19.154L11.2198 18.9572L11 20.9451ZM11 23H9V25H11V23ZM13 23V25H15V23H13ZM13 20.9451L12.7802 18.9572L11 19.154V20.9451H13ZM20.9451 13V11H19.154L18.9572 12.7802L20.9451 13ZM23 13V15H25V13H23ZM23 11H25V9H23V11ZM20.9451 11L18.9572 11.2198L19.154 13H20.9451V11ZM13 3.05493H11V4.84602L12.7802 5.04282L13 3.05493ZM11 3H13V-1H11V3ZM13 3.05493V1H9V3.05493H13ZM5.04282 11.2198C5.4011 7.97872 7.97872 5.4011 11.2198 5.04282L10.7802 1.06704C5.67805 1.63106 1.63106 5.67805 1.06704 10.7802L5.04282 11.2198ZM1 13H3.05493V9H1V13ZM3 13V11H-1V13H3ZM3.05493 11H1V15H3.05493V11ZM11.2198 18.9572C7.97872 18.5989 5.4011 16.0213 5.04282 12.7802L1.06704 13.2198C1.63106 18.322 5.67805 22.3689 10.7802 22.933L11.2198 18.9572ZM13 23V20.9451H9V23H13ZM13 21H11V25H13V21ZM11 20.9451V23H15V20.9451H11ZM18.9572 12.7802C18.5989 16.0213 16.0213 18.5989 12.7802 18.9572L13.2198 22.933C18.322 22.3689 22.3689 18.322 22.933 13.2198L18.9572 12.7802ZM23 11H20.9451V15H23V11ZM21 11V13H25V11H21ZM20.9451 13H23V9H20.9451V13ZM12.7802 5.04282C16.0213 5.4011 18.5989 7.97872 18.9572 11.2198L22.933 10.7802C22.3689 5.67805 18.322 1.63106 13.2198 1.06704L12.7802 5.04282ZM11 1V3.05493H15V1H11ZM12 21C16.9706 21 21 16.9706 21 12H17C17 14.7614 14.7614 17 12 17V21ZM3 12C3 16.9706 7.02944 21 12 21V17C9.23858 17 7 14.7614 7 12H3ZM12 3C7.02944 3 3 7.02944 3 12H7C7 9.23858 9.23858 7 12 7V3ZM21 12C21 7.02944 16.9706 3 12 3V7C14.7614 7 17 9.23858 17 12H21ZM14 12C14 13.1046 13.1046 14 12 14V18C15.3137 18 18 15.3137 18 12H14ZM12 10C13.1046 10 14 10.8954 14 12H18C18 8.68629 15.3137 6 12 6V10ZM10 12C10 10.8954 10.8954 10 12 10V6C8.68629 6 6 8.68629 6 12H10ZM12 14C10.8954 14 10 13.1046 10 12H6C6 15.3137 8.68629 18 12 18V14Z" fill="#4E4E4E" mask="url(#path-1-inside-1_354_155)"/>
</svg>
