<svg width="24" height="24" viewBox="0 0 24 24" fill="none" xmlns="http://www.w3.org/2000/svg">
<path fill-rule="evenodd" clip-rule="evenodd" d="M6 3C4.34315 3 3 4.34315 3 6V18C3 19.6569 4.34315 21 6 21H18C19.6569 21 21 19.6569 21 18V6C21 4.34315 19.6569 3 18 3H6ZM17.4294 8.13068C17.8346 8.50591 17.859 9.13861 17.4837 9.54385L10.5799 17L6.34921 13.3737C5.92989 13.0143 5.88132 12.383 6.24075 11.9636C6.60017 11.5443 7.23147 11.4958 7.65079 11.8552L10.4201 14.2289L16.0162 8.18504C16.3915 7.77979 17.0242 7.75546 17.4294 8.13068Z" fill="#4E4E4E"/>
</svg>
