<svg width="24" height="24" viewBox="0 0 24 24" fill="none" xmlns="http://www.w3.org/2000/svg">
<path d="M19.1645 20.1015C18.6838 20.665 18.0093 21.0312 17.27 20.9979C15.3635 20.9121 11.3753 20.2321 7.57097 16.4217C3.76709 12.6118 3.08786 8.61784 3.00209 6.70806C2.96882 5.96717 3.33471 5.29128 3.89782 4.80968L5.70841 3.26118C6.18412 2.85433 6.89062 2.93358 7.282 3.43064L9.8 6.63953C10.0742 6.98827 10.0469 7.4453 9.8 7.83469L7.5 11.5L12.5 16.5L16.3049 14.2C16.7031 13.9531 17.1328 13.9297 17.4603 14.2L20.5934 16.7577C21.0508 17.1289 21.1375 17.7892 20.7555 18.2369L19.1645 20.1015Z" fill="#4E4E4E"/>
<path d="M14 5C14 4.44772 14.4477 4 15 4C15.5523 4 16 4.44772 16 5V9C16 9.55228 15.5523 10 15 10C14.4477 10 14 9.55228 14 9V5Z" fill="#4E4E4E"/>
<path d="M19 4C18.4477 4 18 4.44772 18 5V9C18 9.55228 18.4477 10 19 10C19.5523 10 20 9.55228 20 9V5C20 4.44772 19.5523 4 19 4Z" fill="#4E4E4E"/>
</svg>
