<svg width="24" height="24" viewBox="0 0 24 24" fill="none" xmlns="http://www.w3.org/2000/svg">
<path d="M15 2C13.3431 2 12 3.34315 12 5V13L14.5 11H19C20.6569 11 22 9.65685 22 8V5C22 3.34315 20.6569 2 19 2H15Z" fill="#4E4E4E"/>
<path d="M17.27 20.9979C18.0093 21.0312 18.6838 20.665 19.1645 20.1016L20.7555 18.2369C21.1375 17.7892 21.0632 17.1117 20.5934 16.7577L17.4603 14.3974C17.1205 14.1414 16.6553 14.1314 16.3049 14.3727L12.8192 16.7722L7.22109 11.1652L9.71989 7.83471C9.98572 7.4804 9.9844 6.99241 9.71667 6.63955L7.282 3.43066C6.90351 2.93182 6.18412 2.85434 5.70841 3.26119L3.89782 4.8097C3.33471 5.29129 2.96882 5.96719 3.00209 6.70808C3.08786 8.61786 3.76709 12.6119 7.57097 16.4218C11.3753 20.2321 15.3635 20.9121 17.27 20.9979Z" fill="#4E4E4E"/>
</svg>
