<svg width="24" height="24" viewBox="0 0 24 24" fill="none" xmlns="http://www.w3.org/2000/svg">
<path d="M19.1645 20.1016C18.6838 20.665 18.0093 21.0312 17.27 20.9979C15.3635 20.9121 11.3753 20.2321 7.57097 16.4218C3.76709 12.6119 3.08786 8.61786 3.00209 6.70808C2.96882 5.96719 3.33471 5.29129 3.89782 4.8097L5.70841 3.26119C6.18412 2.85434 6.90351 2.93182 7.282 3.43066L9.71667 6.63955C9.9844 6.99241 9.98572 7.4804 9.71989 7.83471L7.22109 11.1652L12.8192 16.7722L16.3049 14.3727C16.6553 14.1314 17.1205 14.1414 17.4603 14.3974L20.5934 16.7577C21.0632 17.1117 21.1375 17.7892 20.7555 18.2369L19.1645 20.1016Z" fill="#4E4E4E"/>
</svg>
