<svg width="24" height="24" viewBox="0 0 24 24" fill="none" xmlns="http://www.w3.org/2000/svg">
<path fill-rule="evenodd" clip-rule="evenodd" d="M2 7C2 5.34315 3.34315 4 5 4H19C20.6569 4 22 5.34315 22 7V14C22 15.6569 20.6569 17 19 17H14.5L10 22V17H5C3.34315 17 2 15.6569 2 14V7ZM8.875 12.375C9.91053 12.375 10.75 11.5355 10.75 10.5C10.75 9.46447 9.91053 8.625 8.875 8.625C7.83947 8.625 7 9.46447 7 10.5C7 11.5355 7.83947 12.375 8.875 12.375ZM15.125 12.375C16.1605 12.375 17 11.5355 17 10.5C17 9.46447 16.1605 8.625 15.125 8.625C14.0895 8.625 13.25 9.46447 13.25 10.5C13.25 11.5355 14.0895 12.375 15.125 12.375Z" fill="#4E4E4E"/>
</svg>
