<svg width="24" height="24" viewBox="0 0 24 24" fill="none" xmlns="http://www.w3.org/2000/svg">
<path d="M7.24744 7.15848C7.61112 7.57411 8.24288 7.61623 8.65852 7.25255L11 5.20375V17H13V5.20373L15.3415 7.25255C15.7571 7.61623 16.3889 7.57411 16.7526 7.15848C17.1163 6.74284 17.0742 6.11108 16.6585 5.74739L12 1.6712L7.34151 5.7474C6.92587 6.11108 6.88375 6.74284 7.24744 7.15848Z" fill="#4E4E4E"/>
<path d="M5 13C5 12.4477 5.44772 12 6 12H9V10H6C4.34315 10 3 11.3431 3 13V19C3 20.6569 4.34315 22 6 22H18C19.6569 22 21 20.6569 21 19V13C21 11.3431 19.6569 10 18 10H15V12H18C18.5523 12 19 12.4477 19 13V19C19 19.5523 18.5523 20 18 20H6C5.44772 20 5 19.5523 5 19V13Z" fill="#4E4E4E"/>
</svg>
