<svg width="24" height="24" viewBox="0 0 24 24" fill="none" xmlns="http://www.w3.org/2000/svg">
<path d="M11 9C11 8.44771 11.4477 8 12 8C12.5523 8 13 8.44772 13 9V12C13 12.5523 12.5523 13 12 13C11.4477 13 11 12.5523 11 12V9Z" fill="#4E4E4E"/>
<path d="M13 17V15H11V17H13Z" fill="#4E4E4E"/>
<path fill-rule="evenodd" clip-rule="evenodd" d="M12 2.00006C11.2868 2.00006 10.6278 2.38053 10.2712 2.99815L1.67054 17.895C1.31327 18.5138 1.31327 19.2762 1.67054 19.895L1.73404 20.005C2.0913 20.6238 2.75156 21.005 3.46609 21.005H20.5338C21.2484 21.005 21.9086 20.6238 22.2659 20.005L22.3294 19.895C22.6866 19.2762 22.6866 18.5138 22.3294 17.895L13.7287 2.99815C13.3721 2.38053 12.7131 2.00006 12 2.00006ZM3.46609 19.005L12 4.00389L20.5338 19.005H3.46609Z" fill="#4E4E4E"/>
</svg>
