<svg width="24" height="24" viewBox="0 0 24 24" fill="none" xmlns="http://www.w3.org/2000/svg">
<path fill-rule="evenodd" clip-rule="evenodd" d="M10.2712 2.99815C10.6278 2.38053 11.2868 2.00006 12 2.00006C12.7131 2.00006 13.3721 2.38053 13.7287 2.99815L22.3294 17.895C22.6866 18.5138 22.6866 19.2762 22.3294 19.895L22.2659 20.005C21.9086 20.6238 21.2484 21.005 20.5338 21.005H3.46609C2.75156 21.005 2.0913 20.6238 1.73404 20.005L1.67054 19.895C1.31327 19.2762 1.31327 18.5138 1.67054 17.895L10.2712 2.99815ZM11 9C11 8.44772 11.4477 8 12 8C12.5523 8 13 8.44772 13 9V13C13 13.5523 12.5523 14 12 14C11.4477 14 11 13.5523 11 13V9ZM13 18V16H11V18H13Z" fill="#4E4E4E"/>
</svg>
