<svg width="24" height="24" viewBox="0 0 24 24" fill="none" xmlns="http://www.w3.org/2000/svg">
<path d="M4.75259 6.34149C4.38891 5.92586 3.75715 5.88374 3.34151 6.24742C2.92587 6.6111 2.88375 7.24287 3.24744 7.6585L5.85101 10.634C6.61057 11.5021 7.70787 12 8.86132 12H13.0639C13.6309 12 14.1712 12.2406 14.5505 12.6621L17.7797 16.25H14.875C14.3918 16.25 14 16.6418 14 17.125C14 17.6082 14.3918 18 14.875 18H21V11.875C21 11.3918 20.6082 11 20.125 11C19.6418 11 19.25 11.3918 19.25 11.875V14.894L16.0371 11.3241C15.2785 10.4813 14.1979 10 13.0639 10H8.86132C8.28459 10 7.73594 9.75104 7.35617 9.31701L4.75259 6.34149Z" fill="#4E4E4E"/>
</svg>
