<svg width="24" height="24" viewBox="0 0 24 24" fill="none" xmlns="http://www.w3.org/2000/svg">
<path d="M4.75259 17.6585C4.38891 18.0741 3.75715 18.1163 3.34151 17.7526C2.92587 17.3889 2.88375 16.7571 3.24744 16.3415L5.85101 13.366C6.61057 12.4979 7.70787 12 8.86132 12H13.0639C13.6309 12 14.1712 11.7594 14.5505 11.3379L17.7797 7.75H14.875C14.3918 7.75 14 7.35825 14 6.875C14 6.39175 14.3918 6 14.875 6H21V12.125C21 12.6082 20.6082 13 20.125 13C19.6418 13 19.25 12.6082 19.25 12.125V9.10598L16.0371 12.6759C15.2785 13.5187 14.1979 14 13.0639 14H8.86132C8.28459 14 7.73594 14.249 7.35617 14.683L4.75259 17.6585Z" fill="#4E4E4E"/>
</svg>
