<svg width="24" height="24" viewBox="0 0 24 24" fill="none" xmlns="http://www.w3.org/2000/svg">
<path fill-rule="evenodd" clip-rule="evenodd" d="M11.3441 6.21917C11.7753 6.56418 11.8453 7.19347 11.5002 7.62473L8 12L11.5002 16.3753C11.8453 16.8066 11.7753 17.4359 11.3441 17.7809C10.9128 18.1259 10.2835 18.056 9.93851 17.6247L5.5 12L9.93851 6.37534C10.2835 5.94408 10.9128 5.87416 11.3441 6.21917Z" fill="#4E4E4E"/>
<path fill-rule="evenodd" clip-rule="evenodd" d="M17.344 6.21917C17.7753 6.56418 17.8452 7.19348 17.5002 7.62474L14 12L17.5002 16.3753C17.8452 16.8066 17.7753 17.4359 17.344 17.7809C16.9128 18.1259 16.2835 18.056 15.9385 17.6247L11.4387 12L15.9385 6.37535C16.2835 5.94409 16.9128 5.87416 17.344 6.21917Z" fill="#4E4E4E"/>
</svg>
