<svg width="24" height="24" viewBox="0 0 24 24" fill="none" xmlns="http://www.w3.org/2000/svg">
<path d="M7.62473 5.93851C7.19347 5.5935 6.56418 5.66342 6.21917 6.09468C5.87416 6.52594 5.94408 7.15524 6.37534 7.50025L12 12L17.6247 7.50025C18.056 7.15524 18.1259 6.52594 17.7809 6.09468C17.4359 5.66342 16.8066 5.5935 16.3753 5.93851L12 9.43875L7.62473 5.93851Z" fill="#4E4E4E"/>
<path d="M7.62473 11.9385C7.19347 11.5935 6.56418 11.6634 6.21917 12.0947C5.87416 12.5259 5.94408 13.1552 6.37534 13.5002L12 18L17.6247 13.5002C18.056 13.1552 18.1259 12.5259 17.7809 12.0947C17.4359 11.6634 16.8066 11.5935 16.3753 11.9385L12 15.4387L7.62473 11.9385Z" fill="#4E4E4E"/>
</svg>
