<svg width="24" height="24" viewBox="0 0 24 24" fill="none" xmlns="http://www.w3.org/2000/svg">
<path fill-rule="evenodd" clip-rule="evenodd" d="M12.656 6.21913C12.2247 6.56414 12.1548 7.19343 12.4998 7.62469L16 12L12.4998 16.3753C12.1548 16.8066 12.2247 17.4359 12.656 17.7809C13.0872 18.1259 13.7165 18.056 14.0615 17.6247L18.5 12L14.0615 6.3753C13.7165 5.94404 13.0872 5.87412 12.656 6.21913Z" fill="#4E4E4E"/>
<path fill-rule="evenodd" clip-rule="evenodd" d="M6.65598 6.21914C6.22472 6.56415 6.1548 7.19344 6.49981 7.6247L10.0001 12L6.49981 16.3753C6.1548 16.8066 6.22472 17.4359 6.65598 17.7809C7.08724 18.1259 7.71654 18.056 8.06155 17.6247L12.5613 12L8.06155 6.37531C7.71654 5.94405 7.08724 5.87413 6.65598 6.21914Z" fill="#4E4E4E"/>
</svg>
