<svg width="24" height="24" viewBox="0 0 24 24" fill="none" xmlns="http://www.w3.org/2000/svg">
<path fill-rule="evenodd" clip-rule="evenodd" d="M2 12C2 17.5228 6.47715 22 12 22C17.5228 22 22 17.5228 22 12C22 6.47715 17.5228 2 12 2C6.47715 2 2 6.47715 2 12ZM15.2929 14.2032C15.6834 14.5989 16.3166 14.5989 16.7071 14.2032C17.0976 13.8074 17.0976 13.1658 16.7071 12.7701L12 8L7.29289 12.7701C6.90237 13.1658 6.90237 13.8074 7.29289 14.2032C7.68342 14.5989 8.31658 14.5989 8.70711 14.2032L12 10.8663L15.2929 14.2032Z" fill="#4E4E4E"/>
</svg>
