<svg width="24" height="24" viewBox="0 0 24 24" fill="none" xmlns="http://www.w3.org/2000/svg">
<path fill-rule="evenodd" clip-rule="evenodd" d="M2 12C2 6.47715 6.47715 2 12 2C17.5228 2 22 6.47715 22 12C22 17.5228 17.5228 22 12 22C6.47715 22 2 17.5228 2 12ZM18 12C18 11.4477 17.5523 11 17 11H9.2303L11.5 8.5C11.8211 8.13882 11.7885 7.58575 11.4273 7.2647C11.0661 6.94365 10.5131 6.97618 10.192 7.33736L6 12L10.192 16.6626C10.5131 17.0238 11.0661 17.0564 11.4273 16.7353C11.7885 16.4142 11.8211 15.8612 11.5 15.5L9.23032 13H17C17.5523 13 18 12.5523 18 12Z" fill="#4E4E4E"/>
</svg>
