<svg width="24" height="24" viewBox="0 0 24 24" fill="none" xmlns="http://www.w3.org/2000/svg">
<path fill-rule="evenodd" clip-rule="evenodd" d="M12 22C17.5228 22 22 17.5228 22 12C22 6.47715 17.5228 2 12 2C6.47715 2 2 6.47715 2 12C2 17.5228 6.47715 22 12 22ZM12 6C12.5523 6 13 6.44772 13 7V14.7697L15.5 12.5C15.8612 12.1789 16.4142 12.2115 16.7353 12.5727C17.0564 12.9339 17.0238 13.4869 16.6626 13.808L12 18L7.33736 13.808C6.97618 13.4869 6.94364 12.9339 7.2647 12.5727C7.58575 12.2115 8.13881 12.1789 8.5 12.5L11 14.7697V7C11 6.44772 11.4477 6 12 6Z" fill="#4E4E4E"/>
</svg>
