<svg width="24" height="24" viewBox="0 0 24 24" fill="none" xmlns="http://www.w3.org/2000/svg">
<path fill-rule="evenodd" clip-rule="evenodd" d="M2 12C2 17.5228 6.47715 22 12 22C17.5228 22 22 17.5228 22 12C22 6.47715 17.5228 2 12 2C6.47715 2 2 6.47715 2 12ZM15.2929 9.79681C15.6834 9.40106 16.3166 9.40106 16.7071 9.79681C17.0976 10.1926 17.0976 10.8342 16.7071 11.2299L12 16L7.29289 11.2299C6.90237 10.8342 6.90237 10.1926 7.29289 9.79681C7.68342 9.40106 8.31658 9.40106 8.70711 9.79681L12 13.1337L15.2929 9.79681Z" fill="#4E4E4E"/>
</svg>
