<svg width="24" height="24" viewBox="0 0 24 24" fill="none" xmlns="http://www.w3.org/2000/svg">
<path fill-rule="evenodd" clip-rule="evenodd" d="M12 22C17.5228 22 22 17.5228 22 12C22 6.47715 17.5228 2 12 2C6.47715 2 2 6.47715 2 12C2 17.5228 6.47715 22 12 22ZM9.79681 8.70711C9.40106 8.31658 9.40106 7.68342 9.79681 7.29289C10.1926 6.90237 10.8342 6.90237 11.2299 7.29289L16 12L11.2299 16.7071C10.8342 17.0976 10.1926 17.0976 9.79681 16.7071C9.40106 16.3166 9.40106 15.6834 9.79681 15.2929L13.1337 12L9.79681 8.70711Z" fill="#4E4E4E"/>
</svg>
