<svg width="24" height="24" viewBox="0 0 24 24" fill="none" xmlns="http://www.w3.org/2000/svg">
<path fill-rule="evenodd" clip-rule="evenodd" d="M12 2C17.5228 2 22 6.47715 22 12C22 17.5228 17.5228 22 12 22C6.47715 22 2 17.5228 2 12C2 6.47715 6.47715 2 12 2ZM12 18C12.5523 18 13 17.5523 13 17V9.2303L15.5 11.5C15.8612 11.8211 16.4142 11.7885 16.7353 11.4273C17.0564 11.0661 17.0238 10.5131 16.6626 10.192L12 6L7.33736 10.192C6.97618 10.5131 6.94364 11.0661 7.2647 11.4273C7.58575 11.7885 8.13881 11.8211 8.5 11.5L11 9.23032V17C11 17.5523 11.4477 18 12 18Z" fill="#4E4E4E"/>
</svg>
