<svg width="24" height="24" viewBox="0 0 24 24" fill="none" xmlns="http://www.w3.org/2000/svg">
<path d="M12 19C15.2603 19 18.0024 16.7701 18.7795 13.7507C18.9172 13.2159 19.4623 12.8939 19.9972 13.0316C20.532 13.1692 20.854 13.7144 20.7164 14.2493C19.7173 18.1308 16.195 21 12 21C9.25921 21 6.80548 19.7745 5.15565 17.8443L3 20V14H9L6.57532 16.4247C7.85991 17.9977 9.81331 19 12 19Z" fill="#4E4E4E"/>
<path d="M4.00274 10.9684C3.46789 10.8308 3.1459 10.2856 3.28356 9.75074C4.2826 5.86919 7.80495 3 12 3C14.7407 3 17.1945 4.22547 18.8443 6.15569L21 4V10H15L17.4246 7.57536C16.14 6.00227 14.1866 5 12 5C8.73961 5 5.99757 7.2299 5.22044 10.2493C5.08277 10.7841 4.53759 11.1061 4.00274 10.9684Z" fill="#4E4E4E"/>
</svg>
