<svg width="24" height="24" viewBox="0 0 24 24" fill="none" xmlns="http://www.w3.org/2000/svg">
<path fill-rule="evenodd" clip-rule="evenodd" d="M10.3716 3.44273C11.3789 2.85958 12.6211 2.85958 13.6284 3.44274L21.5 8L21.1894 9.24253C21.0781 9.6877 20.6781 10 20.2192 10H20V17C20.5523 17 21 17.4477 21 18V20H3V18C3 17.4477 3.44772 17 4 17V10H3.78078C3.32191 10 2.92193 9.6877 2.81063 9.24253L2.5 8L10.3716 3.44273ZM13 6.5C13 7.05228 12.5523 7.5 12 7.5C11.4477 7.5 11 7.05228 11 6.5C11 5.94772 11.4477 5.5 12 5.5C12.5523 5.5 13 5.94772 13 6.5ZM8.75 9C7.7835 9 7 9.7835 7 10.75V17H10.5V10.75C10.5 9.7835 9.7165 9 8.75 9ZM15.25 9C14.2835 9 13.5 9.7835 13.5 10.75V17H17V10.75C17 9.7835 16.2165 9 15.25 9Z" fill="#4E4E4E"/>
</svg>
