<svg width="24" height="24" viewBox="0 0 24 24" fill="none" xmlns="http://www.w3.org/2000/svg">
<path fill-rule="evenodd" clip-rule="evenodd" d="M2 8C2 6.34315 3.34315 5 5 5H19C20.6569 5 22 6.34315 22 8V16C22 17.6569 20.6569 19 19 19H5C3.34315 19 2 17.6569 2 16V8ZM13 8H11V12.7235L8.84945 11.1622C8.46956 10.8864 7.93803 10.9707 7.66223 11.3506C7.38642 11.7305 7.4708 12.262 7.85068 12.5378L12.0001 15.5L16.1495 12.5378C16.5294 12.262 16.6137 11.7305 16.3379 11.3506C16.0621 10.9707 15.5306 10.8864 15.1507 11.1622L13 12.7236V8Z" fill="#4E4E4E"/>
</svg>
