<svg width="24" height="24" viewBox="0 0 24 24" fill="none" xmlns="http://www.w3.org/2000/svg">
<path fill-rule="evenodd" clip-rule="evenodd" d="M2 7C2 5.34315 3.34315 4 5 4H15C16.6569 4 18 5.34315 18 7V12C18 13.6569 16.6569 15 15 15H5C3.34315 15 2 13.6569 2 12V7ZM4 7H7V9H4V7Z" fill="#4E4E4E"/>
<path d="M7.99995 19C6.69373 19 5.58249 18.1652 5.17065 17H18.9999C19.5522 17 19.9999 16.5523 19.9999 16V8.17071C21.1651 8.58254 21.9999 9.69378 21.9999 11V16C21.9999 17.6569 20.6568 19 18.9999 19H7.99995Z" fill="#4E4E4E"/>
</svg>
