<svg width="24" height="24" viewBox="0 0 24 24" fill="none" xmlns="http://www.w3.org/2000/svg">
<path fill-rule="evenodd" clip-rule="evenodd" d="M3.45104 2.24896C3.11909 1.91701 2.5809 1.91701 2.24896 2.24896C1.91701 2.58091 1.91701 3.1191 2.24896 3.45104L3.9769 5.17898C2.82379 5.59727 2 6.70243 2 8V16C2 17.6569 3.34315 19 5 19H17.7979L20.549 21.751C20.8809 22.083 21.4191 22.083 21.7511 21.751C22.083 21.4191 22.083 20.8809 21.7511 20.549L3.45104 2.24896ZM15.7979 17L10.7979 12H4V16C4 16.5523 4.44772 17 5 17H15.7979ZM7.79793 9L5.79792 7H5C4.44772 7 4 7.44772 4 8V9H7.79793Z" fill="#4E4E4E"/>
<path d="M22 8V18L20 16V12H16L13 9H20V8C20 7.44771 19.5523 7 19 7H11L9 5H19C20.6569 5 22 6.34315 22 8Z" fill="#4E4E4E"/>
</svg>
