<svg width="24" height="24" viewBox="0 0 24 24" fill="none" xmlns="http://www.w3.org/2000/svg">
<g clip-path="url(#clip0_194_696)">
<path fill-rule="evenodd" clip-rule="evenodd" d="M7.42695 4.24611C6.95141 4.52696 6.79359 5.14014 7.07445 5.61568C7.35531 6.09122 7.96849 6.24904 8.44403 5.96819C11.1286 4.38269 14.6442 4.74484 16.9497 7.05025C18.316 8.41657 19.0001 10.2075 19 12H17L20 16L23 12H20.9998C20.9997 9.69775 20.1218 7.39392 18.3639 5.63604C15.3976 2.66972 10.878 2.20787 7.42695 4.24611ZM24.0208 12.7071L24 12.7279V12.7071H24.0208ZM7.05017 16.9497C9.35558 19.2552 12.8713 19.6173 15.5558 18.0318C16.0313 17.751 16.6445 17.9088 16.9254 18.3843C17.2062 18.8599 17.0484 19.473 16.5729 19.7539C13.1218 21.7921 8.60227 21.3303 5.63595 18.364C3.87808 16.6061 3.00012 14.3023 3.00005 12V12H1L4 8L7 12H4.99978V12C4.99972 13.7925 5.68386 15.5834 7.05017 16.9497ZM-5.8949e-05 11.2929V11.2721L-0.020874 11.2929H-5.8949e-05ZM13 7H11V8C9.86694 8.177 9.00002 9.16573 9.00002 10.3485C9.00002 11.4995 9.82759 12.4839 10.9615 12.6817L12.7464 12.993C13.0665 13.0488 13.3 13.3267 13.3 13.6515C13.3 14.0207 13.0007 14.32 12.6316 14.32H11.52C11.0671 14.32 10.7 13.9529 10.7 13.5H9C9 14.7135 9.85773 15.7604 11 16V17H13V16C14.1331 15.823 15 14.8343 15 13.6515C15 12.5005 14.1725 11.5161 13.0385 11.3183L11.2536 11.007C10.9336 10.9512 10.7 10.6733 10.7 10.3485C10.7 9.97928 10.9993 9.68 11.3685 9.68H12.4799C12.9328 9.68 13.2999 10.0471 13.2999 10.5H14.9999C14.9999 9.28652 14.1422 8.23966 13 8V7Z" fill="#4E4E4E"/>
</g>
<defs>
<clipPath id="clip0_194_696">
<rect width="24" height="24" fill="white"/>
</clipPath>
</defs>
</svg>
