<svg width="24" height="24" viewBox="0 0 24 24" fill="none" xmlns="http://www.w3.org/2000/svg">
<path fill-rule="evenodd" clip-rule="evenodd" d="M5 6C5 5.44772 5.44772 5 6 5H18C18.5523 5 19 5.44772 19 6V18C19 18.5523 18.5523 19 18 19H6C5.44772 19 5 18.5523 5 18V6ZM13 11.1879C13 11.6946 13.2557 12.167 13.68 12.4439L15.5547 13.668L14.4453 15.3321L12.7211 14.1826C12.2844 13.8915 11.7156 13.8915 11.2789 14.1826L9.55471 15.3321L8.44531 13.668L10.32 12.4439C10.7443 12.167 11 11.6946 11 11.1879V9H13V11.1879Z" fill="#4E4E4E"/>
<path fill-rule="evenodd" clip-rule="evenodd" d="M5 2C3.34315 2 2 3.34315 2 5V19C2 20.6569 3.34315 22 5 22H19C20.6569 22 22 20.6569 22 19V5C22 3.34315 20.6569 2 19 2H5ZM5.5 4C4.67157 4 4 4.67157 4 5.5V18.5C4 19.3284 4.67157 20 5.5 20H18.5C19.3284 20 20 19.3284 20 18.5V5.5C20 4.67157 19.3284 4 18.5 4H5.5Z" fill="#4E4E4E"/>
</svg>
