<svg width="24" height="24" fill="none" xmlns="http://www.w3.org/2000/svg"><path fill-rule="evenodd" clip-rule="evenodd" d="M12 22c5.523 0 10-4.477 10-10S17.523 2 12 2 2 6.477 2 12s4.477 10 10 10zm8-10c0-.454-.038-.9-.111-1.333l-.433-1.3A2 2 0 0017.558 8h-3.794a1.765 1.765 0 00-.9 3.282l2.134 1.267a2 2 0 01.765.817l1.56 3.085a1 1 0 00.892.549h.03A7.966 7.966 0 0020 12zM10 5.253V4.252a8.003 8.003 0 00-1.956 14.704l1.679-2.724a2 2 0 00-.036-2.153L6.796 9.712C6.026 8.55 6.86 7 8.253 7 9.218 7 10 6.218 10 5.253z" fill="#4E4E4E"/></svg>