<svg width="24" height="24" fill="none" xmlns="http://www.w3.org/2000/svg"><path fill-rule="evenodd" clip-rule="evenodd" d="M12 2c5.523 0 10 4.477 10 10s-4.477 10-10 10S2 17.523 2 12 6.477 2 12 2zm.002 18a.21.21 0 00.077-.024c.06-.027.164-.089.303-.22.288-.27.638-.755.976-1.506.584-1.297 1.013-3.128 1.118-5.25H9.524c.105 2.122.534 3.953 1.118 5.25.338.75.688 1.236.976 1.507.139.13.243.192.303.22.05.022.072.023.078.023h.003zm-3.024-.59c-.804-1.62-1.343-3.876-1.456-6.41h-3.46a8.009 8.009 0 004.916 6.41zM4.062 11h3.46c.113-2.534.652-4.79 1.456-6.41A8.008 8.008 0 004.062 11zm10.96 8.41A8.008 8.008 0 0019.938 13h-3.46c-.113 2.534-.652 4.79-1.456 6.41zM19.938 11a8.008 8.008 0 00-4.916-6.41c.804 1.62 1.343 3.876 1.456 6.41h3.46zm-7.94-7a.211.211 0 00-.077.024c-.06.027-.164.089-.303.22-.288.27-.638.755-.976 1.506-.584 1.297-1.013 3.128-1.118 5.25h4.952c-.105-2.122-.534-3.953-1.118-5.25-.338-.75-.688-1.236-.976-1.507a1.176 1.176 0 00-.303-.22.206.206 0 00-.078-.023h-.003z" fill="#4E4E4E"/></svg>