<svg width="24" height="24" fill="none" xmlns="http://www.w3.org/2000/svg"><mask id="a" fill="#fff"><path d="M12 16a4 4 0 100-8 4 4 0 000 8z"/><path fill-rule="evenodd" clip-rule="evenodd" d="M13 1h-2v2.055A9.004 9.004 0 003.055 11H1v2h2.055A9.004 9.004 0 0011 20.945V23h2v-2.055A9.004 9.004 0 0020.945 13H23v-2h-2.055A9.004 9.004 0 0013 3.055V1zm6 11a7 7 0 11-14 0 7 7 0 0114 0z"/></mask><path d="M12 16a4 4 0 100-8 4 4 0 000 8z" fill="#4E4E4E"/><path fill-rule="evenodd" clip-rule="evenodd" d="M13 1h-2v2.055A9.004 9.004 0 003.055 11H1v2h2.055A9.004 9.004 0 0011 20.945V23h2v-2.055A9.004 9.004 0 0020.945 13H23v-2h-2.055A9.004 9.004 0 0013 3.055V1zm6 11a7 7 0 11-14 0 7 7 0 0114 0z" fill="#4E4E4E"/><path d="M11 1v-2H9v2h2zm2 0h2v-2h-2v2zm-2 2.055l.22 1.988L13 4.846V3.055h-2zM3.055 11v2h1.791l.197-1.78L3.055 11zM1 11V9h-2v2h2zm0 2h-2v2h2v-2zm2.055 0l1.988-.22L4.846 11H3.055v2zM11 20.945h2v-1.791l-1.78-.197-.22 1.988zM11 23H9v2h2v-2zm2 0v2h2v-2h-2zm0-2.055l-.22-1.988-1.78.197v1.791h2zM20.945 13v-2h-1.791l-.197 1.78 1.988.22zM23 13v2h2v-2h-2zm0-2h2V9h-2v2zm-2.055 0l-1.988.22.197 1.78h1.791v-2zM13 3.055h-2v1.791l1.78.197.22-1.988zM11 3h2v-4h-2v4zm2 .055V1H9v2.055h4zM5.043 11.22a7.004 7.004 0 016.177-6.177l-.44-3.976a11.004 11.004 0 00-9.713 9.713l3.976.44zM1 13h2.055V9H1v4zm2 0v-2h-4v2h4zm.055-2H1v4h2.055v-4zm8.165 7.957a7.004 7.004 0 01-6.177-6.177l-3.976.44a11.004 11.004 0 009.713 9.713l.44-3.976zM13 23v-2.055H9V23h4zm0-2h-2v4h2v-4zm-2-.055V23h4v-2.055h-4zm7.957-8.165a7.004 7.004 0 01-6.177 6.177l.44 3.976a11.004 11.004 0 009.713-9.713l-3.976-.44zM23 11h-2.055v4H23v-4zm-2 0v2h4v-2h-4zm-.055 2H23V9h-2.055v4zM12.78 5.043a7.004 7.004 0 016.177 6.177l3.976-.44a11.004 11.004 0 00-9.713-9.713l-.44 3.976zM11 1v2.055h4V1h-4zm1 20a9 9 0 009-9h-4a5 5 0 01-5 5v4zm-9-9a9 9 0 009 9v-4a5 5 0 01-5-5H3zm9-9a9 9 0 00-9 9h4a5 5 0 015-5V3zm9 9a9 9 0 00-9-9v4a5 5 0 015 5h4zm-7 0a2 2 0 01-2 2v4a6 6 0 006-6h-4zm-2-2a2 2 0 012 2h4a6 6 0 00-6-6v4zm-2 2a2 2 0 012-2V6a6 6 0 00-6 6h4zm2 2a2 2 0 01-2-2H6a6 6 0 006 6v-4z" fill="#4E4E4E" mask="url(#a)"/></svg>