<svg width="24" height="24" viewBox="0 0 24 24" fill="none" xmlns="http://www.w3.org/2000/svg">
<path fill-rule="evenodd" clip-rule="evenodd" d="M2 6C2 4.34315 3.34315 3 5 3H19C20.6569 3 22 4.34315 22 6V8C22 9.65685 20.6569 11 19 11H5C3.34315 11 2 9.65685 2 8V6ZM14 8C14.5523 8 15 7.55228 15 7C15 6.44772 14.5523 6 14 6C13.4477 6 13 6.44772 13 7C13 7.55228 13.4477 8 14 8ZM18 8C18.5523 8 19 7.55228 19 7C19 6.44772 18.5523 6 18 6C17.4477 6 17 6.44772 17 7C17 7.55228 17.4477 8 18 8Z" fill="#4E4E4E"/>
<path fill-rule="evenodd" clip-rule="evenodd" d="M2 16C2 14.3431 3.34315 13 5 13H19C20.6569 13 22 14.3431 22 16V18C22 19.6569 20.6569 21 19 21H5C3.34315 21 2 19.6569 2 18V16ZM14 18C14.5523 18 15 17.5523 15 17C15 16.4477 14.5523 16 14 16C13.4477 16 13 16.4477 13 17C13 17.5523 13.4477 18 14 18ZM18 18C18.5523 18 19 17.5523 19 17C19 16.4477 18.5523 16 18 16C17.4477 16 17 16.4477 17 17C17 17.5523 17.4477 18 18 18Z" fill="#4E4E4E"/>
</svg>
