<svg width="24" height="24" viewBox="0 0 24 24" fill="none" xmlns="http://www.w3.org/2000/svg">
<path fill-rule="evenodd" clip-rule="evenodd" d="M5 5C5 3.34315 6.34315 2 8 2H16C17.6569 2 19 3.34315 19 5V19C19 20.6569 17.6569 22 16 22H8C6.34315 22 5 20.6569 5 19V5ZM10 18C9.44772 18 9 18.4477 9 19C9 19.5523 9.44772 20 10 20H14C14.5523 20 15 19.5523 15 19C15 18.4477 14.5523 18 14 18H10Z" fill="#4E4E4E"/>
<path d="M9 18H15V20H9V18Z" fill="#EDEBEB"/>
<path d="M23 7C23 10.866 19.866 14 16 14C12.134 14 9 10.866 9 7C9 3.13401 12.134 0 16 0C19.866 0 23 3.13401 23 7Z" fill="#4E4E4E"/>
<path d="M21 7C21 9.76142 18.7614 12 16 12C13.2386 12 11 9.76142 11 7C11 4.23858 13.2386 2 16 2C18.7614 2 21 4.23858 21 7Z" fill="#EDEBEB"/>
<path d="M16 3.5C16.5523 3.5 17 3.94771 17 4.5V6.58579L18.4142 8.08578C18.8047 8.47631 18.8047 9.10947 18.4142 9.5C18.0237 9.89052 17.3905 9.89052 17 9.5L15.2929 7.70711C15.1054 7.51957 15 7.26522 15 7V4.5C15 3.94771 15.4477 3.5 16 3.5Z" fill="#4E4E4E"/>
</svg>
