<svg width="24" height="24" viewBox="0 0 24 24" fill="none" xmlns="http://www.w3.org/2000/svg">
<path fill-rule="evenodd" clip-rule="evenodd" d="M2.24896 2.24896C2.5809 1.91701 3.11909 1.91701 3.45104 2.24896L21.7511 20.549C22.083 20.8809 22.083 21.4191 21.7511 21.751C21.4191 22.083 20.8809 22.083 20.549 21.751L18.821 20.0231C18.4027 21.1762 17.2976 22 16 22H8C6.34315 22 5 20.6569 5 19V6.20208L2.24896 3.45104C1.91701 3.1191 1.91701 2.58091 2.24896 2.24896ZM9 18H15V20H9V18Z" fill="#4E4E4E"/>
<path d="M19 15V5C19 3.34315 17.6569 2 16 2H8C7.42783 2 6.89308 2.16018 6.43813 2.43813L19 15Z" fill="#4E4E4E"/>
</svg>
