<svg width="24" height="24" fill="none" xmlns="http://www.w3.org/2000/svg"><path fill-rule="evenodd" clip-rule="evenodd" d="M5 5a3 3 0 013-3h8a3 3 0 013 3v14a3 3 0 01-3 3H8a3 3 0 01-3-3V5zm5 13a1 1 0 100 2h4a1 1 0 100-2h-4z" fill="#4E4E4E"/><path d="M9 18h6v2H9v-2z" fill="#EDEBEB"/><path d="M23 7A7 7 0 119 7a7 7 0 0114 0z" fill="#4E4E4E"/><path d="M21 7a5 5 0 11-10 0 5 5 0 0110 0z" fill="#EDEBEB"/><path d="M16 3.5a1 1 0 011 1v2.086l1.414 1.5A1 1 0 0117 9.5l-1.707-1.793A1 1 0 0115 7V4.5a1 1 0 011-1z" fill="#4E4E4E"/></svg>